<svg xmlns="http://www.w3.org/2000/svg" xmlns:xlink="http://www.w3.org/1999/xlink" width="500" zoomAndPan="magnify" viewBox="0 0 375 374.999991" height="500" preserveAspectRatio="xMidYMid meet" version="1.0"><defs><g/><clipPath id="29626975b1"><path d="M 0 42 L 101 42 L 101 375 L 0 375 Z M 0 42 " clip-rule="nonzero"/></clipPath><clipPath id="34b7662f8d"><path d="M 0 29 L 114 29 L 114 375 L 0 375 Z M 0 29 " clip-rule="nonzero"/></clipPath><clipPath id="ee95df0f96"><path d="M 0 273 L 101 273 L 101 375 L 0 375 Z M 0 273 " clip-rule="nonzero"/></clipPath><clipPath id="905f855c64"><path d="M 0 261 L 114 261 L 114 375 L 0 375 Z M 0 261 " clip-rule="nonzero"/></clipPath><clipPath id="9f8b93c8c4"><path d="M 220 0 L 341 0 L 341 339 L 220 339 Z M 220 0 " clip-rule="nonzero"/></clipPath><clipPath id="e6d17e568d"><path d="M 207 0 L 353 0 L 353 351 L 207 351 Z M 207 0 " clip-rule="nonzero"/></clipPath><clipPath id="6d0f4144cc"><path d="M 0 346 L 11 346 L 11 375 L 0 375 Z M 0 346 " clip-rule="nonzero"/></clipPath><clipPath id="a39d84bce8"><rect x="0" width="375" y="0" height="375"/></clipPath><clipPath id="0f9dd7966c"><rect x="0" width="375" y="0" height="276"/></clipPath></defs><rect x="-37.5" width="450" fill="#ffffff" y="-37.499999" height="449.999989" fill-opacity="1"/><rect x="-37.5" width="450" fill="#ffffff" y="-37.499999" height="449.999989" fill-opacity="1"/><g transform="matrix(1, 0, 0, 1, 0, 0)"><g clip-path="url(#a39d84bce8)"><g clip-path="url(#29626975b1)"><path fill="#000000" d="M -19.347656 376.605469 L 100.503906 42.527344 " fill-opacity="1" fill-rule="nonzero"/></g><g clip-path="url(#34b7662f8d)"><path fill="#6ce5e8" d="M -31.296875 372.316406 L 88.550781 38.242188 C 88.835938 37.457031 89.1875 36.707031 89.617188 35.992188 C 90.046875 35.277344 90.542969 34.613281 91.101562 33.996094 C 91.664062 33.378906 92.277344 32.820312 92.949219 32.324219 C 93.617188 31.828125 94.332031 31.402344 95.085938 31.046875 C 95.839844 30.691406 96.621094 30.414062 97.429688 30.210938 C 98.238281 30.007812 99.058594 29.886719 99.890625 29.847656 C 100.722656 29.808594 101.550781 29.847656 102.375 29.972656 C 103.199219 30.09375 104.003906 30.296875 104.789062 30.578125 C 105.574219 30.859375 106.324219 31.214844 107.039062 31.644531 C 107.753906 32.074219 108.417969 32.570312 109.035156 33.128906 C 109.652344 33.6875 110.210938 34.304688 110.707031 34.972656 C 111.203125 35.644531 111.628906 36.355469 111.984375 37.109375 C 112.339844 37.863281 112.621094 38.644531 112.820312 39.453125 C 113.023438 40.261719 113.144531 41.082031 113.183594 41.917969 C 113.222656 42.75 113.183594 43.578125 113.058594 44.402344 C 112.9375 45.226562 112.734375 46.03125 112.453125 46.816406 L -7.398438 380.894531 C -7.679688 381.675781 -8.035156 382.425781 -8.460938 383.140625 C -8.890625 383.855469 -9.386719 384.523438 -9.945312 385.140625 C -10.507812 385.757812 -11.121094 386.3125 -11.792969 386.808594 C -12.460938 387.304688 -13.175781 387.730469 -13.929688 388.085938 C -14.683594 388.441406 -15.464844 388.722656 -16.273438 388.921875 C -17.082031 389.125 -17.902344 389.246094 -18.734375 389.285156 C -19.566406 389.328125 -20.394531 389.285156 -21.21875 389.164062 C -22.046875 389.039062 -22.851562 388.835938 -23.632812 388.554688 C -24.417969 388.273438 -25.167969 387.917969 -25.882812 387.488281 C -26.597656 387.0625 -27.265625 386.566406 -27.882812 386.003906 C -28.5 385.445312 -29.054688 384.828125 -29.550781 384.160156 C -30.046875 383.488281 -30.472656 382.777344 -30.828125 382.023438 C -31.183594 381.269531 -31.464844 380.488281 -31.664062 379.679688 C -31.867188 378.871094 -31.988281 378.050781 -32.027344 377.21875 C -32.070312 376.386719 -32.027344 375.554688 -31.90625 374.730469 C -31.78125 373.90625 -31.578125 373.101562 -31.296875 372.316406 Z M 87.808594 42.527344 C 87.808594 41.695312 87.886719 40.871094 88.050781 40.050781 C 88.214844 39.234375 88.453125 38.441406 88.773438 37.671875 C 89.09375 36.898438 89.484375 36.167969 89.945312 35.476562 C 90.410156 34.78125 90.9375 34.140625 91.523438 33.550781 C 92.113281 32.960938 92.757812 32.433594 93.449219 31.972656 C 94.140625 31.507812 94.875 31.117188 95.644531 30.800781 C 96.414062 30.480469 97.207031 30.238281 98.027344 30.078125 C 98.84375 29.914062 99.667969 29.832031 100.503906 29.832031 C 101.335938 29.832031 102.164062 29.914062 102.980469 30.078125 C 103.796875 30.238281 104.589844 30.480469 105.363281 30.800781 C 106.132812 31.117188 106.863281 31.507812 107.554688 31.972656 C 108.25 32.433594 108.890625 32.960938 109.480469 33.550781 C 110.070312 34.140625 110.597656 34.78125 111.058594 35.476562 C 111.523438 36.167969 111.914062 36.898438 112.234375 37.671875 C 112.550781 38.441406 112.792969 39.234375 112.957031 40.050781 C 113.117188 40.871094 113.199219 41.695312 113.199219 42.527344 C 113.199219 43.363281 113.117188 44.1875 112.957031 45.003906 C 112.792969 45.824219 112.550781 46.617188 112.234375 47.386719 C 111.914062 48.15625 111.523438 48.890625 111.058594 49.582031 C 110.597656 50.277344 110.070312 50.917969 109.480469 51.507812 C 108.890625 52.097656 108.25 52.621094 107.554688 53.085938 C 106.863281 53.546875 106.132812 53.941406 105.363281 54.257812 C 104.589844 54.578125 103.796875 54.820312 102.980469 54.980469 C 102.164062 55.144531 101.335938 55.226562 100.503906 55.226562 C 99.667969 55.226562 98.84375 55.144531 98.027344 54.980469 C 97.207031 54.820312 96.414062 54.578125 95.644531 54.257812 C 94.875 53.941406 94.140625 53.546875 93.449219 53.085938 C 92.757812 52.621094 92.113281 52.097656 91.523438 51.507812 C 90.9375 50.917969 90.410156 50.277344 89.945312 49.582031 C 89.484375 48.890625 89.09375 48.15625 88.773438 47.386719 C 88.453125 46.617188 88.214844 45.824219 88.050781 45.003906 C 87.886719 44.1875 87.808594 43.363281 87.808594 42.527344 Z M 87.808594 42.527344 " fill-opacity="1" fill-rule="nonzero"/></g><path fill="#000000" d="M 100.503906 42.527344 L 220.351562 145.320312 " fill-opacity="1" fill-rule="nonzero"/><path fill="#6ce5e8" d="M 108.769531 32.890625 L 228.617188 135.683594 C 229.25 136.226562 229.824219 136.828125 230.339844 137.480469 C 230.855469 138.136719 231.300781 138.835938 231.675781 139.582031 C 232.054688 140.324219 232.355469 141.097656 232.578125 141.902344 C 232.804688 142.703125 232.949219 143.519531 233.011719 144.351562 C 233.074219 145.183594 233.058594 146.011719 232.957031 146.839844 C 232.859375 147.667969 232.679688 148.476562 232.417969 149.269531 C 232.160156 150.0625 231.828125 150.820312 231.417969 151.546875 C 231.007812 152.273438 230.53125 152.953125 229.988281 153.585938 C 229.449219 154.21875 228.847656 154.792969 228.191406 155.308594 C 227.535156 155.824219 226.835938 156.269531 226.09375 156.644531 C 225.351562 157.023438 224.578125 157.324219 223.773438 157.546875 C 222.972656 157.773438 222.152344 157.917969 221.324219 157.980469 C 220.492188 158.042969 219.664062 158.027344 218.835938 157.925781 C 218.007812 157.828125 217.195312 157.648438 216.40625 157.386719 C 215.613281 157.128906 214.851562 156.796875 214.125 156.386719 C 213.398438 155.976562 212.71875 155.5 212.085938 154.957031 L 92.238281 52.167969 C 91.605469 51.625 91.03125 51.023438 90.515625 50.367188 C 90 49.710938 89.554688 49.011719 89.179688 48.269531 C 88.800781 47.527344 88.5 46.753906 88.277344 45.949219 C 88.050781 45.148438 87.90625 44.328125 87.84375 43.5 C 87.78125 42.667969 87.796875 41.839844 87.898438 41.011719 C 87.996094 40.183594 88.175781 39.371094 88.4375 38.582031 C 88.695312 37.789062 89.03125 37.027344 89.4375 36.300781 C 89.847656 35.574219 90.324219 34.894531 90.867188 34.261719 C 91.410156 33.628906 92.007812 33.058594 92.664062 32.542969 C 93.320312 32.027344 94.019531 31.582031 94.761719 31.203125 C 95.507812 30.828125 96.277344 30.527344 97.082031 30.300781 C 97.886719 30.078125 98.703125 29.933594 99.53125 29.871094 C 100.363281 29.804688 101.195312 29.824219 102.019531 29.921875 C 102.847656 30.023438 103.660156 30.203125 104.453125 30.460938 C 105.242188 30.722656 106.003906 31.054688 106.730469 31.464844 C 107.457031 31.875 108.136719 32.347656 108.769531 32.890625 Z M 108.769531 32.890625 " fill-opacity="1" fill-rule="nonzero"/><path fill="#000000" d="M 220.351562 145.320312 L 340.203125 119.625 " fill-opacity="1" fill-rule="nonzero"/><path fill="#6ce5e8" d="M 217.691406 132.90625 L 337.542969 107.210938 C 338.355469 107.035156 339.179688 106.941406 340.015625 106.929688 C 340.847656 106.917969 341.675781 106.984375 342.496094 107.136719 C 343.316406 107.285156 344.113281 107.515625 344.886719 107.824219 C 345.660156 108.128906 346.398438 108.511719 347.097656 108.964844 C 347.800781 109.414062 348.449219 109.933594 349.046875 110.511719 C 349.644531 111.09375 350.179688 111.726562 350.652344 112.414062 C 351.128906 113.101562 351.527344 113.824219 351.859375 114.589844 C 352.191406 115.355469 352.441406 116.148438 352.617188 116.960938 C 352.792969 117.777344 352.886719 118.601562 352.898438 119.433594 C 352.910156 120.269531 352.839844 121.09375 352.691406 121.914062 C 352.539062 122.734375 352.3125 123.53125 352.003906 124.308594 C 351.695312 125.082031 351.316406 125.820312 350.863281 126.519531 C 350.410156 127.21875 349.894531 127.867188 349.3125 128.464844 C 348.734375 129.066406 348.097656 129.601562 347.414062 130.074219 C 346.726562 130.546875 346 130.949219 345.234375 131.28125 C 344.46875 131.609375 343.679688 131.863281 342.863281 132.039062 L 223.015625 157.734375 C 222.199219 157.910156 221.375 158.003906 220.542969 158.015625 C 219.707031 158.027344 218.882812 157.960938 218.0625 157.808594 C 217.242188 157.660156 216.445312 157.429688 215.667969 157.121094 C 214.894531 156.816406 214.15625 156.433594 213.457031 155.980469 C 212.757812 155.527344 212.109375 155.011719 211.511719 154.433594 C 210.910156 153.851562 210.375 153.21875 209.902344 152.53125 C 209.429688 151.84375 209.027344 151.121094 208.695312 150.355469 C 208.367188 149.589844 208.113281 148.796875 207.9375 147.984375 C 207.765625 147.167969 207.671875 146.34375 207.65625 145.511719 C 207.644531 144.675781 207.714844 143.851562 207.867188 143.03125 C 208.015625 142.210938 208.246094 141.414062 208.550781 140.636719 C 208.859375 139.863281 209.238281 139.125 209.691406 138.425781 C 210.144531 137.726562 210.664062 137.078125 211.242188 136.480469 C 211.824219 135.878906 212.457031 135.34375 213.144531 134.871094 C 213.828125 134.398438 214.554688 133.996094 215.320312 133.664062 C 216.085938 133.335938 216.875 133.082031 217.691406 132.90625 Z M 352.898438 119.625 C 352.898438 120.457031 352.816406 121.28125 352.65625 122.101562 C 352.492188 122.917969 352.25 123.710938 351.933594 124.480469 C 351.613281 125.253906 351.222656 125.984375 350.757812 126.675781 C 350.296875 127.371094 349.769531 128.011719 349.179688 128.601562 C 348.589844 129.191406 347.949219 129.71875 347.257812 130.179688 C 346.5625 130.644531 345.832031 131.035156 345.0625 131.351562 C 344.292969 131.671875 343.496094 131.914062 342.679688 132.074219 C 341.863281 132.238281 341.035156 132.320312 340.203125 132.320312 C 339.371094 132.320312 338.542969 132.238281 337.726562 132.074219 C 336.910156 131.914062 336.113281 131.671875 335.34375 131.351562 C 334.574219 131.035156 333.84375 130.644531 333.148438 130.179688 C 332.457031 129.71875 331.816406 129.191406 331.226562 128.601562 C 330.636719 128.011719 330.109375 127.371094 329.648438 126.675781 C 329.183594 125.984375 328.792969 125.253906 328.472656 124.480469 C 328.15625 123.710938 327.914062 122.917969 327.75 122.101562 C 327.589844 121.28125 327.507812 120.457031 327.507812 119.625 C 327.507812 118.789062 327.589844 117.964844 327.75 117.148438 C 327.914062 116.328125 328.15625 115.535156 328.472656 114.765625 C 328.792969 113.996094 329.183594 113.261719 329.648438 112.570312 C 330.109375 111.875 330.636719 111.234375 331.226562 110.644531 C 331.816406 110.054688 332.457031 109.53125 333.148438 109.066406 C 333.84375 108.605469 334.574219 108.210938 335.34375 107.894531 C 336.113281 107.574219 336.910156 107.332031 337.726562 107.171875 C 338.542969 107.007812 339.371094 106.925781 340.203125 106.925781 C 341.035156 106.925781 341.863281 107.007812 342.679688 107.171875 C 343.496094 107.332031 344.292969 107.574219 345.0625 107.894531 C 345.832031 108.210938 346.5625 108.605469 347.257812 109.066406 C 347.949219 109.53125 348.589844 110.054688 349.179688 110.644531 C 349.769531 111.234375 350.296875 111.875 350.757812 112.570312 C 351.222656 113.261719 351.613281 113.996094 351.933594 114.765625 C 352.253906 115.535156 352.492188 116.328125 352.65625 117.148438 C 352.816406 117.964844 352.898438 118.789062 352.898438 119.625 Z M 352.898438 119.625 " fill-opacity="1" fill-rule="nonzero"/><g clip-path="url(#ee95df0f96)"><path fill="#000000" d="M -19.347656 479.398438 L 100.503906 273.8125 " fill-opacity="1" fill-rule="nonzero"/></g><g clip-path="url(#905f855c64)"><path fill="#41b8d5" d="M -30.316406 473.003906 L 89.535156 267.417969 C 89.953125 266.699219 90.441406 266.027344 90.992188 265.402344 C 91.546875 264.777344 92.152344 264.210938 92.816406 263.707031 C 93.480469 263.203125 94.1875 262.769531 94.933594 262.402344 C 95.683594 262.035156 96.460938 261.746094 97.269531 261.535156 C 98.074219 261.324219 98.894531 261.191406 99.726562 261.140625 C 100.558594 261.089844 101.386719 261.121094 102.214844 261.230469 C 103.039062 261.34375 103.847656 261.535156 104.632812 261.808594 C 105.421875 262.078125 106.175781 262.425781 106.898438 262.84375 C 107.617188 263.265625 108.289062 263.75 108.914062 264.300781 C 109.539062 264.855469 110.101562 265.460938 110.609375 266.125 C 111.113281 266.789062 111.546875 267.496094 111.914062 268.246094 C 112.277344 268.996094 112.566406 269.773438 112.78125 270.578125 C 112.992188 271.382812 113.125 272.203125 113.175781 273.035156 C 113.226562 273.867188 113.195312 274.695312 113.082031 275.523438 C 112.972656 276.347656 112.78125 277.15625 112.507812 277.945312 C 112.238281 278.734375 111.890625 279.488281 111.472656 280.207031 L -8.378906 485.792969 C -8.796875 486.511719 -9.285156 487.183594 -9.835938 487.808594 C -10.390625 488.433594 -10.996094 489 -11.660156 489.503906 C -12.324219 490.007812 -13.03125 490.441406 -13.78125 490.808594 C -14.527344 491.175781 -15.304688 491.464844 -16.113281 491.675781 C -16.917969 491.886719 -17.738281 492.019531 -18.570312 492.070312 C -19.402344 492.121094 -20.230469 492.089844 -21.058594 491.980469 C -21.882812 491.867188 -22.691406 491.675781 -23.480469 491.402344 C -24.265625 491.132812 -25.019531 490.785156 -25.742188 490.367188 C -26.460938 489.945312 -27.132812 489.460938 -27.757812 488.910156 C -28.382812 488.355469 -28.949219 487.75 -29.453125 487.085938 C -29.957031 486.421875 -30.390625 485.714844 -30.757812 484.964844 C -31.125 484.214844 -31.414062 483.4375 -31.625 482.632812 C -31.835938 481.828125 -31.96875 481.007812 -32.019531 480.175781 C -32.070312 479.34375 -32.039062 478.515625 -31.925781 477.6875 C -31.816406 476.863281 -31.625 476.054688 -31.351562 475.265625 C -31.082031 474.476562 -30.734375 473.722656 -30.316406 473.003906 Z M 87.808594 273.8125 C 87.808594 272.980469 87.886719 272.152344 88.050781 271.335938 C 88.214844 270.519531 88.453125 269.722656 88.773438 268.953125 C 89.09375 268.183594 89.484375 267.453125 89.945312 266.757812 C 90.410156 266.066406 90.9375 265.425781 91.523438 264.835938 C 92.113281 264.246094 92.757812 263.71875 93.449219 263.257812 C 94.140625 262.792969 94.875 262.402344 95.644531 262.082031 C 96.414062 261.765625 97.207031 261.523438 98.027344 261.359375 C 98.84375 261.199219 99.667969 261.117188 100.503906 261.117188 C 101.335938 261.117188 102.164062 261.199219 102.980469 261.359375 C 103.796875 261.523438 104.589844 261.765625 105.363281 262.082031 C 106.132812 262.402344 106.863281 262.792969 107.554688 263.257812 C 108.25 263.71875 108.890625 264.246094 109.480469 264.835938 C 110.070312 265.425781 110.597656 266.066406 111.058594 266.757812 C 111.523438 267.453125 111.914062 268.183594 112.234375 268.953125 C 112.550781 269.722656 112.792969 270.519531 112.957031 271.335938 C 113.117188 272.152344 113.199219 272.980469 113.199219 273.8125 C 113.199219 274.644531 113.117188 275.472656 112.957031 276.289062 C 112.792969 277.105469 112.550781 277.902344 112.234375 278.671875 C 111.914062 279.441406 111.523438 280.171875 111.058594 280.867188 C 110.597656 281.558594 110.070312 282.199219 109.480469 282.789062 C 108.890625 283.378906 108.25 283.90625 107.554688 284.371094 C 106.863281 284.832031 106.132812 285.222656 105.363281 285.542969 C 104.589844 285.863281 103.796875 286.101562 102.980469 286.265625 C 102.164062 286.425781 101.335938 286.507812 100.503906 286.507812 C 99.667969 286.507812 98.84375 286.425781 98.027344 286.265625 C 97.207031 286.101562 96.414062 285.863281 95.644531 285.542969 C 94.875 285.222656 94.140625 284.832031 93.449219 284.371094 C 92.757812 283.90625 92.113281 283.378906 91.523438 282.789062 C 90.9375 282.199219 90.410156 281.558594 89.945312 280.867188 C 89.484375 280.171875 89.09375 279.441406 88.773438 278.671875 C 88.453125 277.902344 88.214844 277.105469 88.050781 276.289062 C 87.886719 275.472656 87.808594 274.644531 87.808594 273.8125 Z M 87.808594 273.8125 " fill-opacity="1" fill-rule="nonzero"/></g><path fill="#000000" d="M 100.503906 273.8125 L 220.351562 338.058594 " fill-opacity="1" fill-rule="nonzero"/><path fill="#41b8d5" d="M 106.5 262.621094 L 226.351562 326.867188 C 227.085938 327.261719 227.773438 327.722656 228.417969 328.253906 C 229.0625 328.78125 229.648438 329.371094 230.175781 330.015625 C 230.703125 330.660156 231.164062 331.351562 231.558594 332.085938 C 231.949219 332.820312 232.265625 333.589844 232.507812 334.386719 C 232.746094 335.183594 232.910156 336 232.988281 336.828125 C 233.070312 337.660156 233.070312 338.488281 232.988281 339.316406 C 232.902344 340.148438 232.742188 340.960938 232.5 341.757812 C 232.253906 342.554688 231.9375 343.320312 231.542969 344.054688 C 231.148438 344.792969 230.6875 345.480469 230.15625 346.125 C 229.628906 346.769531 229.039062 347.355469 228.394531 347.882812 C 227.75 348.410156 227.058594 348.871094 226.324219 349.261719 C 225.589844 349.65625 224.820312 349.972656 224.023438 350.210938 C 223.226562 350.453125 222.410156 350.613281 221.582031 350.695312 C 220.753906 350.777344 219.921875 350.773438 219.09375 350.691406 C 218.265625 350.609375 217.449219 350.445312 216.652344 350.203125 C 215.855469 349.960938 215.089844 349.640625 214.355469 349.25 L 94.503906 285.003906 C 93.769531 284.609375 93.082031 284.148438 92.4375 283.617188 C 91.792969 283.085938 91.207031 282.5 90.679688 281.855469 C 90.152344 281.210938 89.691406 280.519531 89.296875 279.785156 C 88.90625 279.046875 88.589844 278.28125 88.347656 277.484375 C 88.109375 276.6875 87.945312 275.871094 87.867188 275.042969 C 87.785156 274.210938 87.785156 273.382812 87.871094 272.554688 C 87.953125 271.722656 88.113281 270.910156 88.359375 270.113281 C 88.601562 269.316406 88.917969 268.550781 89.3125 267.8125 C 89.707031 267.078125 90.167969 266.390625 90.699219 265.746094 C 91.226562 265.101562 91.816406 264.515625 92.460938 263.988281 C 93.105469 263.460938 93.796875 263 94.53125 262.609375 C 95.265625 262.214844 96.035156 261.898438 96.832031 261.660156 C 97.628906 261.417969 98.445312 261.257812 99.273438 261.175781 C 100.101562 261.09375 100.933594 261.097656 101.761719 261.179688 C 102.59375 261.261719 103.40625 261.425781 104.203125 261.667969 C 105 261.910156 105.765625 262.230469 106.5 262.621094 Z M 106.5 262.621094 " fill-opacity="1" fill-rule="nonzero"/><g clip-path="url(#9f8b93c8c4)"><path fill="#000000" d="M 220.351562 338.058594 L 340.203125 -111.660156 " fill-opacity="1" fill-rule="nonzero"/></g><g clip-path="url(#e6d17e568d)"><path fill="#41b8d5" d="M 208.085938 334.789062 L 327.933594 -114.929688 C 328.148438 -115.734375 328.441406 -116.511719 328.808594 -117.261719 C 329.175781 -118.007812 329.613281 -118.714844 330.121094 -119.375 C 330.625 -120.039062 331.191406 -120.644531 331.820312 -121.195312 C 332.445312 -121.746094 333.117188 -122.230469 333.839844 -122.648438 C 334.5625 -123.066406 335.316406 -123.40625 336.105469 -123.675781 C 336.894531 -123.945312 337.703125 -124.136719 338.527344 -124.246094 C 339.355469 -124.355469 340.183594 -124.382812 341.015625 -124.332031 C 341.847656 -124.277344 342.667969 -124.144531 343.472656 -123.929688 C 344.277344 -123.714844 345.054688 -123.421875 345.804688 -123.054688 C 346.550781 -122.6875 347.257812 -122.25 347.917969 -121.742188 C 348.582031 -121.238281 349.1875 -120.671875 349.738281 -120.042969 C 350.289062 -119.417969 350.773438 -118.746094 351.191406 -118.023438 C 351.609375 -117.300781 351.949219 -116.546875 352.21875 -115.757812 C 352.488281 -114.96875 352.679688 -114.160156 352.789062 -113.335938 C 352.898438 -112.507812 352.925781 -111.679688 352.875 -110.847656 C 352.820312 -110.015625 352.6875 -109.195312 352.472656 -108.390625 L 232.621094 341.328125 C 232.40625 342.132812 232.113281 342.910156 231.746094 343.65625 C 231.378906 344.40625 230.941406 345.113281 230.4375 345.773438 C 229.929688 346.433594 229.363281 347.042969 228.738281 347.59375 C 228.109375 348.144531 227.4375 348.628906 226.714844 349.042969 C 225.996094 349.460938 225.238281 349.804688 224.449219 350.074219 C 223.660156 350.34375 222.855469 350.535156 222.027344 350.644531 C 221.199219 350.753906 220.371094 350.78125 219.539062 350.726562 C 218.707031 350.675781 217.890625 350.539062 217.082031 350.328125 C 216.277344 350.113281 215.5 349.820312 214.753906 349.453125 C 214.003906 349.085938 213.300781 348.648438 212.636719 348.140625 C 211.976562 347.632812 211.371094 347.066406 210.820312 346.441406 C 210.269531 345.816406 209.785156 345.140625 209.367188 344.421875 C 208.949219 343.699219 208.605469 342.945312 208.335938 342.15625 C 208.066406 341.367188 207.878906 340.558594 207.769531 339.730469 C 207.65625 338.90625 207.628906 338.078125 207.683594 337.246094 C 207.734375 336.414062 207.871094 335.59375 208.085938 334.789062 Z M 208.085938 334.789062 " fill-opacity="1" fill-rule="nonzero"/></g><g clip-path="url(#6d0f4144cc)"><path fill="#6ce5e8" d="M 10.804688 376.605469 C 10.804688 375.617188 10.757812 374.632812 10.660156 373.648438 C 10.5625 372.667969 10.417969 371.691406 10.226562 370.722656 C 10.035156 369.753906 9.792969 368.796875 9.507812 367.851562 C 9.222656 366.90625 8.890625 365.980469 8.511719 365.066406 C 8.132812 364.152344 7.710938 363.261719 7.246094 362.390625 C 6.78125 361.519531 6.273438 360.675781 5.722656 359.851562 C 5.175781 359.03125 4.589844 358.238281 3.960938 357.476562 C 3.335938 356.710938 2.671875 355.980469 1.972656 355.285156 C 1.277344 354.585938 0.546875 353.921875 -0.21875 353.296875 C -0.980469 352.671875 -1.773438 352.082031 -2.59375 351.535156 C -3.414062 350.984375 -4.261719 350.476562 -5.132812 350.011719 C -6.003906 349.546875 -6.894531 349.125 -7.808594 348.746094 C -8.71875 348.371094 -9.648438 348.035156 -10.59375 347.75 C -11.539062 347.464844 -12.496094 347.222656 -13.464844 347.03125 C -14.433594 346.839844 -15.410156 346.695312 -16.390625 346.597656 C -17.375 346.5 -18.359375 346.453125 -19.347656 346.453125 C -20.335938 346.453125 -21.320312 346.5 -22.300781 346.597656 C -23.285156 346.695312 -24.261719 346.839844 -25.230469 347.03125 C -26.199219 347.222656 -27.15625 347.464844 -28.101562 347.75 C -29.046875 348.035156 -29.972656 348.371094 -30.886719 348.746094 C -31.796875 349.125 -32.691406 349.546875 -33.5625 350.011719 C -34.433594 350.476562 -35.277344 350.984375 -36.097656 351.535156 C -36.921875 352.082031 -37.714844 352.671875 -38.476562 353.296875 C -39.238281 353.921875 -39.96875 354.585938 -40.667969 355.285156 C -41.367188 355.980469 -42.03125 356.710938 -42.65625 357.476562 C -43.28125 358.238281 -43.871094 359.03125 -44.417969 359.851562 C -44.96875 360.675781 -45.476562 361.519531 -45.941406 362.390625 C -46.40625 363.261719 -46.828125 364.152344 -47.207031 365.066406 C -47.582031 365.980469 -47.914062 366.90625 -48.203125 367.851562 C -48.488281 368.796875 -48.730469 369.753906 -48.921875 370.722656 C -49.113281 371.691406 -49.257812 372.667969 -49.355469 373.648438 C -49.453125 374.632812 -49.5 375.617188 -49.5 376.605469 C -49.5 377.59375 -49.453125 378.578125 -49.355469 379.5625 C -49.257812 380.542969 -49.113281 381.519531 -48.921875 382.488281 C -48.730469 383.457031 -48.488281 384.414062 -48.203125 385.359375 C -47.914062 386.304688 -47.582031 387.230469 -47.207031 388.144531 C -46.828125 389.058594 -46.40625 389.949219 -45.941406 390.820312 C -45.476562 391.691406 -44.96875 392.535156 -44.417969 393.359375 C -43.871094 394.179688 -43.28125 394.972656 -42.65625 395.734375 C -42.03125 396.496094 -41.367188 397.230469 -40.667969 397.925781 C -39.96875 398.625 -39.238281 399.289062 -38.476562 399.914062 C -37.714844 400.539062 -36.921875 401.128906 -36.097656 401.675781 C -35.277344 402.226562 -34.433594 402.734375 -33.5625 403.199219 C -32.691406 403.664062 -31.796875 404.085938 -30.886719 404.464844 C -29.972656 404.839844 -29.046875 405.175781 -28.101562 405.460938 C -27.15625 405.746094 -26.199219 405.988281 -25.230469 406.179688 C -24.261719 406.371094 -23.285156 406.515625 -22.300781 406.613281 C -21.320312 406.710938 -20.335938 406.757812 -19.347656 406.757812 C -18.359375 406.757812 -17.375 406.710938 -16.390625 406.613281 C -15.410156 406.515625 -14.433594 406.371094 -13.464844 406.179688 C -12.496094 405.988281 -11.539062 405.746094 -10.59375 405.460938 C -9.648438 405.175781 -8.71875 404.839844 -7.808594 404.464844 C -6.894531 404.085938 -6.003906 403.664062 -5.132812 403.199219 C -4.261719 402.734375 -3.414062 402.226562 -2.59375 401.675781 C -1.773438 401.128906 -0.980469 400.539062 -0.21875 399.914062 C 0.546875 399.289062 1.277344 398.625 1.972656 397.925781 C 2.671875 397.230469 3.335938 396.496094 3.960938 395.734375 C 4.589844 394.972656 5.175781 394.179688 5.722656 393.359375 C 6.273438 392.535156 6.78125 391.691406 7.246094 390.820312 C 7.710938 389.949219 8.132812 389.058594 8.511719 388.144531 C 8.890625 387.230469 9.222656 386.304688 9.507812 385.359375 C 9.792969 384.414062 10.035156 383.457031 10.226562 382.488281 C 10.417969 381.519531 10.5625 380.542969 10.660156 379.5625 C 10.757812 378.578125 10.804688 377.59375 10.804688 376.605469 Z M 10.804688 376.605469 " fill-opacity="1" fill-rule="nonzero"/></g><path fill="#6ce5e8" d="M 130.65625 42.527344 C 130.65625 41.542969 130.609375 40.554688 130.511719 39.574219 C 130.414062 38.589844 130.269531 37.613281 130.078125 36.644531 C 129.882812 35.675781 129.644531 34.722656 129.359375 33.777344 C 129.070312 32.832031 128.738281 31.902344 128.359375 30.988281 C 127.984375 30.078125 127.5625 29.1875 127.097656 28.316406 C 126.628906 27.445312 126.125 26.597656 125.574219 25.777344 C 125.027344 24.957031 124.4375 24.164062 123.8125 23.398438 C 123.183594 22.636719 122.523438 21.90625 121.824219 21.207031 C 121.125 20.507812 120.394531 19.847656 119.632812 19.21875 C 118.867188 18.59375 118.078125 18.003906 117.253906 17.457031 C 116.433594 16.910156 115.589844 16.402344 114.71875 15.9375 C 113.847656 15.46875 112.953125 15.046875 112.042969 14.671875 C 111.128906 14.292969 110.199219 13.960938 109.257812 13.671875 C 108.3125 13.386719 107.355469 13.148438 106.386719 12.953125 C 105.417969 12.761719 104.441406 12.617188 103.457031 12.519531 C 102.476562 12.421875 101.492188 12.375 100.503906 12.375 C 99.515625 12.375 98.53125 12.421875 97.546875 12.519531 C 96.566406 12.617188 95.589844 12.761719 94.621094 12.953125 C 93.652344 13.148438 92.695312 13.386719 91.75 13.671875 C 90.804688 13.960938 89.875 14.292969 88.964844 14.671875 C 88.050781 15.046875 87.160156 15.46875 86.289062 15.9375 C 85.417969 16.402344 84.570312 16.910156 83.75 17.457031 C 82.929688 18.003906 82.136719 18.59375 81.375 19.21875 C 80.609375 19.847656 79.878906 20.507812 79.179688 21.207031 C 78.484375 21.90625 77.820312 22.636719 77.195312 23.398438 C 76.566406 24.164062 75.980469 24.957031 75.429688 25.777344 C 74.882812 26.597656 74.375 27.445312 73.910156 28.316406 C 73.445312 29.1875 73.023438 30.078125 72.644531 30.988281 C 72.265625 31.902344 71.933594 32.832031 71.648438 33.777344 C 71.359375 34.722656 71.121094 35.675781 70.929688 36.644531 C 70.734375 37.613281 70.589844 38.589844 70.496094 39.574219 C 70.398438 40.554688 70.347656 41.542969 70.347656 42.527344 C 70.347656 43.515625 70.398438 44.5 70.496094 45.484375 C 70.589844 46.46875 70.734375 47.441406 70.929688 48.410156 C 71.121094 49.378906 71.359375 50.335938 71.648438 51.28125 C 71.933594 52.226562 72.265625 53.15625 72.644531 54.066406 C 73.023438 54.980469 73.445312 55.871094 73.910156 56.742188 C 74.375 57.613281 74.882812 58.460938 75.429688 59.28125 C 75.980469 60.101562 76.566406 60.894531 77.195312 61.65625 C 77.820312 62.421875 78.484375 63.152344 79.179688 63.851562 C 79.878906 64.550781 80.609375 65.210938 81.375 65.839844 C 82.136719 66.464844 82.929688 67.050781 83.75 67.601562 C 84.570312 68.148438 85.417969 68.65625 86.289062 69.121094 C 87.160156 69.585938 88.050781 70.007812 88.964844 70.386719 C 89.875 70.765625 90.804688 71.097656 91.75 71.382812 C 92.695312 71.671875 93.652344 71.910156 94.621094 72.101562 C 95.589844 72.296875 96.566406 72.441406 97.546875 72.539062 C 98.53125 72.632812 99.515625 72.683594 100.503906 72.683594 C 101.492188 72.683594 102.476562 72.632812 103.457031 72.539062 C 104.441406 72.441406 105.417969 72.296875 106.386719 72.101562 C 107.355469 71.910156 108.3125 71.671875 109.257812 71.382812 C 110.199219 71.097656 111.128906 70.765625 112.042969 70.386719 C 112.953125 70.007812 113.847656 69.585938 114.71875 69.121094 C 115.589844 68.65625 116.433594 68.148438 117.253906 67.601562 C 118.078125 67.050781 118.867188 66.464844 119.632812 65.839844 C 120.394531 65.210938 121.125 64.550781 121.824219 63.851562 C 122.523438 63.152344 123.183594 62.421875 123.8125 61.65625 C 124.4375 60.894531 125.027344 60.101562 125.574219 59.28125 C 126.125 58.460938 126.628906 57.613281 127.097656 56.742188 C 127.5625 55.871094 127.984375 54.980469 128.359375 54.066406 C 128.738281 53.15625 129.070312 52.226562 129.359375 51.28125 C 129.644531 50.335938 129.882812 49.378906 130.078125 48.410156 C 130.269531 47.441406 130.414062 46.46875 130.511719 45.484375 C 130.609375 44.5 130.65625 43.515625 130.65625 42.527344 Z M 130.65625 42.527344 " fill-opacity="1" fill-rule="nonzero"/><path fill="#6ce5e8" d="M 250.507812 145.320312 C 250.507812 144.335938 250.457031 143.347656 250.363281 142.367188 C 250.265625 141.382812 250.121094 140.40625 249.925781 139.4375 C 249.734375 138.46875 249.496094 137.511719 249.207031 136.570312 C 248.921875 135.625 248.589844 134.695312 248.210938 133.78125 C 247.832031 132.871094 247.410156 131.976562 246.945312 131.105469 C 246.480469 130.238281 245.972656 129.390625 245.425781 128.570312 C 244.875 127.75 244.289062 126.957031 243.660156 126.191406 C 243.035156 125.429688 242.375 124.699219 241.675781 124 C 240.976562 123.300781 240.246094 122.640625 239.480469 122.011719 C 238.71875 121.386719 237.925781 120.796875 237.105469 120.25 C 236.285156 119.703125 235.4375 119.195312 234.566406 118.730469 C 233.695312 118.261719 232.804688 117.839844 231.890625 117.464844 C 230.980469 117.085938 230.050781 116.753906 229.105469 116.464844 C 228.160156 116.179688 227.203125 115.941406 226.234375 115.746094 C 225.265625 115.554688 224.292969 115.410156 223.308594 115.3125 C 222.324219 115.214844 221.339844 115.167969 220.351562 115.167969 C 219.367188 115.167969 218.378906 115.214844 217.398438 115.3125 C 216.414062 115.410156 215.4375 115.554688 214.46875 115.746094 C 213.5 115.941406 212.546875 116.179688 211.601562 116.464844 C 210.65625 116.753906 209.726562 117.085938 208.8125 117.464844 C 207.902344 117.839844 207.007812 118.261719 206.140625 118.730469 C 205.269531 119.195312 204.421875 119.703125 203.601562 120.25 C 202.78125 120.796875 201.988281 121.386719 201.222656 122.011719 C 200.460938 122.640625 199.730469 123.300781 199.03125 124 C 198.332031 124.699219 197.671875 125.429688 197.042969 126.191406 C 196.417969 126.957031 195.828125 127.75 195.28125 128.570312 C 194.734375 129.390625 194.226562 130.238281 193.761719 131.105469 C 193.292969 131.976562 192.871094 132.871094 192.496094 133.78125 C 192.117188 134.695312 191.785156 135.625 191.496094 136.570312 C 191.210938 137.511719 190.972656 138.46875 190.777344 139.4375 C 190.585938 140.40625 190.441406 141.382812 190.34375 142.367188 C 190.246094 143.347656 190.199219 144.335938 190.199219 145.320312 C 190.199219 146.308594 190.246094 147.292969 190.34375 148.277344 C 190.441406 149.261719 190.585938 150.234375 190.777344 151.203125 C 190.972656 152.171875 191.210938 153.128906 191.496094 154.074219 C 191.785156 155.019531 192.117188 155.949219 192.496094 156.859375 C 192.871094 157.773438 193.292969 158.664062 193.761719 159.535156 C 194.226562 160.40625 194.734375 161.253906 195.28125 162.074219 C 195.828125 162.894531 196.417969 163.6875 197.042969 164.449219 C 197.671875 165.214844 198.332031 165.945312 199.03125 166.644531 C 199.730469 167.339844 200.460938 168.003906 201.222656 168.628906 C 201.988281 169.257812 202.78125 169.84375 203.601562 170.394531 C 204.421875 170.941406 205.269531 171.449219 206.140625 171.914062 C 207.007812 172.378906 207.902344 172.800781 208.8125 173.179688 C 209.726562 173.558594 210.65625 173.890625 211.601562 174.175781 C 212.546875 174.464844 213.5 174.703125 214.46875 174.894531 C 215.4375 175.089844 216.414062 175.234375 217.398438 175.328125 C 218.378906 175.425781 219.367188 175.476562 220.351562 175.476562 C 221.339844 175.476562 222.324219 175.425781 223.308594 175.328125 C 224.292969 175.234375 225.265625 175.089844 226.234375 174.894531 C 227.203125 174.703125 228.160156 174.464844 229.105469 174.175781 C 230.050781 173.890625 230.980469 173.558594 231.890625 173.179688 C 232.804688 172.800781 233.695312 172.378906 234.566406 171.914062 C 235.4375 171.449219 236.285156 170.941406 237.105469 170.394531 C 237.925781 169.84375 238.71875 169.257812 239.480469 168.628906 C 240.246094 168.003906 240.976562 167.339844 241.675781 166.644531 C 242.375 165.945312 243.035156 165.214844 243.660156 164.449219 C 244.289062 163.6875 244.875 162.894531 245.425781 162.074219 C 245.972656 161.253906 246.480469 160.40625 246.945312 159.535156 C 247.410156 158.664062 247.832031 157.773438 248.210938 156.859375 C 248.589844 155.949219 248.921875 155.019531 249.207031 154.074219 C 249.496094 153.128906 249.734375 152.171875 249.925781 151.203125 C 250.121094 150.234375 250.265625 149.261719 250.363281 148.277344 C 250.457031 147.292969 250.507812 146.308594 250.507812 145.320312 Z M 250.507812 145.320312 " fill-opacity="1" fill-rule="nonzero"/><path fill="#6ce5e8" d="M 370.355469 119.625 C 370.355469 118.636719 370.308594 117.652344 370.210938 116.667969 C 370.113281 115.683594 369.96875 114.710938 369.777344 113.742188 C 369.585938 112.773438 369.34375 111.816406 369.058594 110.871094 C 368.773438 109.925781 368.4375 108.996094 368.0625 108.085938 C 367.683594 107.171875 367.261719 106.28125 366.796875 105.410156 C 366.332031 104.539062 365.824219 103.691406 365.273438 102.871094 C 364.726562 102.050781 364.136719 101.257812 363.511719 100.496094 C 362.886719 99.730469 362.222656 99 361.523438 98.300781 C 360.828125 97.601562 360.097656 96.941406 359.332031 96.316406 C 358.570312 95.6875 357.777344 95.101562 356.957031 94.550781 C 356.132812 94.003906 355.289062 93.496094 354.417969 93.03125 C 353.546875 92.566406 352.65625 92.144531 351.742188 91.765625 C 350.828125 91.386719 349.902344 91.054688 348.957031 90.769531 C 348.011719 90.480469 347.054688 90.242188 346.085938 90.050781 C 345.117188 89.855469 344.140625 89.710938 343.160156 89.613281 C 342.175781 89.519531 341.191406 89.46875 340.203125 89.46875 C 339.214844 89.46875 338.230469 89.519531 337.246094 89.613281 C 336.265625 89.710938 335.289062 89.855469 334.320312 90.050781 C 333.351562 90.242188 332.394531 90.480469 331.449219 90.769531 C 330.503906 91.054688 329.578125 91.386719 328.664062 91.765625 C 327.75 92.144531 326.859375 92.566406 325.988281 93.03125 C 325.117188 93.496094 324.273438 94.003906 323.449219 94.550781 C 322.628906 95.101562 321.835938 95.6875 321.074219 96.316406 C 320.308594 96.941406 319.578125 97.601562 318.882812 98.300781 C 318.183594 99 317.519531 99.730469 316.894531 100.496094 C 316.269531 101.257812 315.679688 102.050781 315.132812 102.871094 C 314.582031 103.691406 314.074219 104.539062 313.609375 105.410156 C 313.144531 106.28125 312.722656 107.171875 312.34375 108.085938 C 311.96875 108.996094 311.632812 109.925781 311.347656 110.871094 C 311.0625 111.816406 310.820312 112.773438 310.628906 113.742188 C 310.4375 114.710938 310.292969 115.683594 310.195312 116.667969 C 310.097656 117.652344 310.050781 118.636719 310.050781 119.625 C 310.050781 120.609375 310.097656 121.597656 310.195312 122.578125 C 310.292969 123.5625 310.4375 124.539062 310.628906 125.507812 C 310.820312 126.476562 311.0625 127.429688 311.347656 128.375 C 311.632812 129.320312 311.96875 130.25 312.34375 131.164062 C 312.722656 132.074219 313.144531 132.96875 313.609375 133.835938 C 314.074219 134.707031 314.582031 135.554688 315.132812 136.375 C 315.679688 137.195312 316.269531 137.988281 316.894531 138.753906 C 317.519531 139.515625 318.183594 140.246094 318.882812 140.945312 C 319.578125 141.644531 320.308594 142.304688 321.074219 142.933594 C 321.835938 143.558594 322.628906 144.148438 323.449219 144.695312 C 324.273438 145.242188 325.117188 145.75 325.988281 146.214844 C 326.859375 146.683594 327.75 147.105469 328.664062 147.480469 C 329.578125 147.859375 330.503906 148.191406 331.449219 148.480469 C 332.394531 148.765625 333.351562 149.003906 334.320312 149.199219 C 335.289062 149.390625 336.265625 149.535156 337.246094 149.632812 C 338.230469 149.730469 339.214844 149.777344 340.203125 149.777344 C 341.191406 149.777344 342.175781 149.730469 343.160156 149.632812 C 344.140625 149.535156 345.117188 149.390625 346.085938 149.199219 C 347.054688 149.003906 348.011719 148.765625 348.957031 148.480469 C 349.902344 148.191406 350.828125 147.859375 351.742188 147.480469 C 352.65625 147.105469 353.546875 146.683594 354.417969 146.214844 C 355.289062 145.75 356.132812 145.242188 356.957031 144.695312 C 357.777344 144.148438 358.570312 143.558594 359.332031 142.933594 C 360.097656 142.304688 360.828125 141.644531 361.523438 140.945312 C 362.222656 140.246094 362.886719 139.515625 363.511719 138.753906 C 364.136719 137.988281 364.726562 137.195312 365.273438 136.375 C 365.824219 135.554688 366.332031 134.707031 366.796875 133.835938 C 367.261719 132.96875 367.683594 132.074219 368.0625 131.164062 C 368.4375 130.25 368.773438 129.320312 369.058594 128.375 C 369.34375 127.429688 369.585938 126.476562 369.777344 125.507812 C 369.96875 124.539062 370.113281 123.5625 370.210938 122.578125 C 370.308594 121.597656 370.355469 120.609375 370.355469 119.625 Z M 370.355469 119.625 " fill-opacity="1" fill-rule="nonzero"/><path fill="#41b8d5" d="M 130.65625 273.8125 C 130.65625 272.824219 130.609375 271.839844 130.511719 270.855469 C 130.414062 269.875 130.269531 268.898438 130.078125 267.929688 C 129.882812 266.960938 129.644531 266.003906 129.359375 265.058594 C 129.070312 264.113281 128.738281 263.1875 128.359375 262.273438 C 127.984375 261.359375 127.5625 260.46875 127.097656 259.597656 C 126.628906 258.726562 126.125 257.882812 125.574219 257.058594 C 125.027344 256.238281 124.4375 255.445312 123.8125 254.683594 C 123.183594 253.921875 122.523438 253.1875 121.824219 252.492188 C 121.125 251.792969 120.394531 251.128906 119.632812 250.503906 C 118.867188 249.878906 118.078125 249.289062 117.253906 248.742188 C 116.433594 248.191406 115.589844 247.683594 114.71875 247.21875 C 113.847656 246.753906 112.953125 246.332031 112.042969 245.953125 C 111.128906 245.578125 110.199219 245.246094 109.257812 244.957031 C 108.3125 244.671875 107.355469 244.429688 106.386719 244.238281 C 105.417969 244.046875 104.441406 243.902344 103.457031 243.804688 C 102.476562 243.707031 101.492188 243.660156 100.503906 243.660156 C 99.515625 243.660156 98.53125 243.707031 97.546875 243.804688 C 96.566406 243.902344 95.589844 244.046875 94.621094 244.238281 C 93.652344 244.429688 92.695312 244.671875 91.75 244.957031 C 90.804688 245.246094 89.875 245.578125 88.964844 245.953125 C 88.050781 246.332031 87.160156 246.753906 86.289062 247.21875 C 85.417969 247.683594 84.570312 248.191406 83.75 248.742188 C 82.929688 249.289062 82.136719 249.878906 81.375 250.503906 C 80.609375 251.128906 79.878906 251.792969 79.179688 252.492188 C 78.484375 253.1875 77.820312 253.921875 77.195312 254.683594 C 76.566406 255.445312 75.980469 256.238281 75.429688 257.058594 C 74.882812 257.882812 74.375 258.726562 73.910156 259.597656 C 73.445312 260.46875 73.023438 261.359375 72.644531 262.273438 C 72.265625 263.1875 71.933594 264.113281 71.648438 265.058594 C 71.359375 266.003906 71.121094 266.960938 70.929688 267.929688 C 70.734375 268.898438 70.589844 269.875 70.496094 270.855469 C 70.398438 271.839844 70.347656 272.824219 70.347656 273.8125 C 70.347656 274.800781 70.398438 275.785156 70.496094 276.769531 C 70.589844 277.75 70.734375 278.726562 70.929688 279.695312 C 71.121094 280.664062 71.359375 281.621094 71.648438 282.566406 C 71.933594 283.511719 72.265625 284.441406 72.644531 285.351562 C 73.023438 286.265625 73.445312 287.15625 73.910156 288.027344 C 74.375 288.898438 74.882812 289.742188 75.429688 290.566406 C 75.980469 291.386719 76.566406 292.179688 77.195312 292.941406 C 77.820312 293.707031 78.484375 294.4375 79.179688 295.132812 C 79.878906 295.832031 80.609375 296.496094 81.375 297.121094 C 82.136719 297.75 82.929688 298.335938 83.75 298.882812 C 84.570312 299.433594 85.417969 299.941406 86.289062 300.40625 C 87.160156 300.871094 88.050781 301.292969 88.964844 301.671875 C 89.875 302.046875 90.804688 302.382812 91.75 302.667969 C 92.695312 302.953125 93.652344 303.195312 94.621094 303.386719 C 95.589844 303.578125 96.566406 303.722656 97.546875 303.820312 C 98.53125 303.917969 99.515625 303.964844 100.503906 303.964844 C 101.492188 303.964844 102.476562 303.917969 103.457031 303.820312 C 104.441406 303.722656 105.417969 303.578125 106.386719 303.386719 C 107.355469 303.195312 108.3125 302.953125 109.257812 302.667969 C 110.199219 302.382812 111.128906 302.050781 112.042969 301.671875 C 112.953125 301.292969 113.847656 300.871094 114.71875 300.40625 C 115.589844 299.941406 116.433594 299.433594 117.253906 298.882812 C 118.078125 298.335938 118.867188 297.75 119.632812 297.121094 C 120.394531 296.496094 121.125 295.832031 121.824219 295.132812 C 122.523438 294.4375 123.183594 293.707031 123.8125 292.941406 C 124.4375 292.179688 125.027344 291.386719 125.574219 290.566406 C 126.125 289.742188 126.628906 288.898438 127.097656 288.027344 C 127.5625 287.15625 127.984375 286.265625 128.359375 285.351562 C 128.738281 284.441406 129.070312 283.511719 129.359375 282.566406 C 129.644531 281.621094 129.882812 280.664062 130.078125 279.695312 C 130.269531 278.726562 130.414062 277.75 130.511719 276.769531 C 130.609375 275.785156 130.65625 274.800781 130.65625 273.8125 Z M 130.65625 273.8125 " fill-opacity="1" fill-rule="nonzero"/><path fill="#41b8d5" d="M 250.507812 338.058594 C 250.507812 337.070312 250.457031 336.085938 250.363281 335.101562 C 250.265625 334.121094 250.121094 333.144531 249.925781 332.175781 C 249.734375 331.207031 249.496094 330.25 249.207031 329.304688 C 248.921875 328.359375 248.589844 327.429688 248.210938 326.519531 C 247.832031 325.605469 247.410156 324.714844 246.945312 323.84375 C 246.480469 322.972656 245.972656 322.125 245.425781 321.304688 C 244.875 320.484375 244.289062 319.691406 243.660156 318.929688 C 243.035156 318.164062 242.375 317.433594 241.675781 316.738281 C 240.976562 316.039062 240.246094 315.375 239.480469 314.75 C 238.71875 314.121094 237.925781 313.535156 237.105469 312.988281 C 236.285156 312.4375 235.4375 311.929688 234.566406 311.464844 C 233.695312 311 232.804688 310.578125 231.890625 310.199219 C 230.980469 309.820312 230.050781 309.488281 229.105469 309.203125 C 228.160156 308.917969 227.203125 308.675781 226.234375 308.484375 C 225.265625 308.292969 224.292969 308.148438 223.308594 308.050781 C 222.324219 307.953125 221.339844 307.90625 220.351562 307.90625 C 219.367188 307.90625 218.378906 307.953125 217.398438 308.050781 C 216.414062 308.148438 215.4375 308.292969 214.46875 308.484375 C 213.5 308.675781 212.546875 308.917969 211.601562 309.203125 C 210.65625 309.488281 209.726562 309.820312 208.8125 310.199219 C 207.902344 310.578125 207.007812 311 206.140625 311.464844 C 205.269531 311.929688 204.421875 312.4375 203.601562 312.988281 C 202.78125 313.535156 201.988281 314.121094 201.222656 314.75 C 200.460938 315.375 199.730469 316.039062 199.03125 316.738281 C 198.332031 317.433594 197.671875 318.164062 197.042969 318.929688 C 196.417969 319.691406 195.828125 320.484375 195.28125 321.304688 C 194.734375 322.125 194.226562 322.972656 193.761719 323.84375 C 193.292969 324.714844 192.871094 325.605469 192.496094 326.519531 C 192.117188 327.429688 191.785156 328.359375 191.496094 329.304688 C 191.210938 330.25 190.972656 331.207031 190.777344 332.175781 C 190.585938 333.144531 190.441406 334.121094 190.34375 335.101562 C 190.246094 336.085938 190.199219 337.070312 190.199219 338.058594 C 190.199219 339.046875 190.246094 340.03125 190.34375 341.015625 C 190.441406 341.996094 190.585938 342.972656 190.777344 343.941406 C 190.972656 344.910156 191.210938 345.867188 191.496094 346.8125 C 191.785156 347.757812 192.117188 348.683594 192.496094 349.597656 C 192.871094 350.511719 193.292969 351.402344 193.761719 352.273438 C 194.226562 353.144531 194.734375 353.988281 195.28125 354.808594 C 195.828125 355.632812 196.417969 356.425781 197.042969 357.1875 C 197.671875 357.949219 198.332031 358.679688 199.03125 359.378906 C 199.730469 360.078125 200.460938 360.742188 201.222656 361.367188 C 201.988281 361.992188 202.78125 362.582031 203.601562 363.128906 C 204.421875 363.679688 205.269531 364.1875 206.140625 364.652344 C 207.007812 365.117188 207.902344 365.539062 208.8125 365.917969 C 209.726562 366.292969 210.65625 366.625 211.601562 366.914062 C 212.546875 367.199219 213.5 367.441406 214.46875 367.632812 C 215.4375 367.824219 216.414062 367.96875 217.398438 368.066406 C 218.378906 368.164062 219.367188 368.210938 220.351562 368.210938 C 221.339844 368.210938 222.324219 368.164062 223.308594 368.066406 C 224.292969 367.96875 225.265625 367.824219 226.234375 367.632812 C 227.203125 367.441406 228.160156 367.199219 229.105469 366.914062 C 230.050781 366.625 230.980469 366.292969 231.890625 365.917969 C 232.804688 365.539062 233.695312 365.117188 234.566406 364.652344 C 235.4375 364.1875 236.285156 363.679688 237.105469 363.128906 C 237.925781 362.582031 238.71875 361.992188 239.480469 361.367188 C 240.246094 360.742188 240.976562 360.078125 241.675781 359.378906 C 242.375 358.679688 243.035156 357.949219 243.660156 357.1875 C 244.289062 356.425781 244.875 355.632812 245.425781 354.808594 C 245.972656 353.988281 246.480469 353.144531 246.945312 352.273438 C 247.410156 351.402344 247.832031 350.511719 248.210938 349.597656 C 248.589844 348.683594 248.921875 347.757812 249.207031 346.8125 C 249.496094 345.867188 249.734375 344.910156 249.925781 343.941406 C 250.121094 342.972656 250.265625 341.996094 250.363281 341.015625 C 250.457031 340.03125 250.507812 339.046875 250.507812 338.058594 Z M 250.507812 338.058594 " fill-opacity="1" fill-rule="nonzero"/></g></g><g transform="matrix(1, 0, 0, 1, 0, 60)"><g clip-path="url(#0f9dd7966c)"><g fill="#000000" fill-opacity="1"><g transform="translate(0.0000045, 218.229567)"><g><path d="M 86.140625 -30.921875 L 41.703125 -30.921875 L 32.953125 0 L 2.84375 0 L 51.359375 -148.09375 L 77.296875 -148.09375 L 124.890625 0 L 94.796875 0 Z M 48.71875 -55.234375 L 79.4375 -55.234375 L 64.28125 -109.75 Z M 48.71875 -55.234375 "/></g></g><g transform="translate(125.000006, 218.229567)"><g><path d="M 90.21875 -38.65625 C 90.21875 -41.289062 89.757812 -43.757812 88.84375 -46.0625 C 87.925781 -48.375 86.363281 -50.53125 84.15625 -52.53125 C 81.957031 -54.53125 79.078125 -56.359375 75.515625 -58.015625 C 71.953125 -59.679688 67.53125 -61.226562 62.25 -62.65625 C 55.800781 -64.414062 49.644531 -66.617188 43.78125 -69.265625 C 37.914062 -71.910156 32.742188 -75.097656 28.265625 -78.828125 C 23.796875 -82.554688 20.222656 -86.894531 17.546875 -91.84375 C 14.867188 -96.789062 13.53125 -102.484375 13.53125 -108.921875 C 13.53125 -115.160156 14.847656 -120.820312 17.484375 -125.90625 C 20.128906 -131 23.789062 -135.34375 28.46875 -138.9375 C 33.15625 -142.53125 38.679688 -145.289062 45.046875 -147.21875 C 51.421875 -149.15625 58.34375 -150.125 65.8125 -150.125 C 73.539062 -150.125 80.609375 -149.003906 87.015625 -146.765625 C 93.421875 -144.523438 98.925781 -141.382812 103.53125 -137.34375 C 108.144531 -133.3125 111.738281 -128.515625 114.3125 -122.953125 C 116.894531 -117.398438 118.1875 -111.300781 118.1875 -104.65625 L 90.3125 -104.65625 C 90.175781 -107.976562 89.582031 -111.03125 88.53125 -113.8125 C 87.476562 -116.59375 85.914062 -118.984375 83.84375 -120.984375 C 81.78125 -122.984375 79.207031 -124.539062 76.125 -125.65625 C 73.039062 -126.78125 69.429688 -127.34375 65.296875 -127.34375 C 61.492188 -127.34375 58.117188 -126.882812 55.171875 -125.96875 C 52.222656 -125.050781 49.734375 -123.757812 47.703125 -122.09375 C 45.671875 -120.4375 44.128906 -118.472656 43.078125 -116.203125 C 42.023438 -113.929688 41.5 -111.472656 41.5 -108.828125 C 41.5 -106.046875 42.191406 -103.535156 43.578125 -101.296875 C 44.972656 -99.054688 46.988281 -97.035156 49.625 -95.234375 C 52.269531 -93.441406 55.472656 -91.800781 59.234375 -90.3125 C 63.003906 -88.820312 67.265625 -87.429688 72.015625 -86.140625 C 78.785156 -84.179688 85.019531 -81.773438 90.71875 -78.921875 C 96.414062 -76.078125 101.316406 -72.703125 105.421875 -68.796875 C 109.523438 -64.898438 112.710938 -60.457031 114.984375 -55.46875 C 117.253906 -50.488281 118.390625 -44.953125 118.390625 -38.859375 C 118.390625 -32.347656 117.082031 -26.566406 114.46875 -21.515625 C 111.863281 -16.460938 108.253906 -12.1875 103.640625 -8.6875 C 99.023438 -5.195312 93.53125 -2.550781 87.15625 -0.75 C 80.789062 1.039062 73.84375 1.9375 66.3125 1.9375 C 61.632812 1.9375 56.972656 1.507812 52.328125 0.65625 C 47.679688 -0.1875 43.238281 -1.488281 39 -3.25 C 34.757812 -5.019531 30.804688 -7.222656 27.140625 -9.859375 C 23.484375 -12.503906 20.316406 -15.585938 17.640625 -19.109375 C 14.960938 -22.640625 12.859375 -26.640625 11.328125 -31.109375 C 9.804688 -35.585938 9.046875 -40.539062 9.046875 -45.96875 L 37.125 -45.96875 C 37.257812 -41.5 38.035156 -37.671875 39.453125 -34.484375 C 40.878906 -31.296875 42.863281 -28.679688 45.40625 -26.640625 C 47.945312 -24.609375 51 -23.117188 54.5625 -22.171875 C 58.125 -21.222656 62.039062 -20.75 66.3125 -20.75 C 70.113281 -20.75 73.488281 -21.1875 76.4375 -22.0625 C 79.382812 -22.945312 81.875 -24.171875 83.90625 -25.734375 C 85.9375 -27.296875 87.492188 -29.175781 88.578125 -31.375 C 89.671875 -33.582031 90.21875 -36.007812 90.21875 -38.65625 Z M 90.21875 -38.65625 "/></g></g><g transform="translate(250.000007, 218.229567)"><g><path d="M 116.15625 -46.375 C 115.675781 -38.914062 114.0625 -32.203125 111.3125 -26.234375 C 108.570312 -20.273438 104.894531 -15.191406 100.28125 -10.984375 C 95.675781 -6.773438 90.1875 -3.535156 83.8125 -1.265625 C 77.4375 1.003906 70.382812 2.140625 62.65625 2.140625 C 53.90625 2.140625 46.140625 0.53125 39.359375 -2.6875 C 32.578125 -5.914062 26.878906 -10.425781 22.265625 -16.21875 C 17.660156 -22.019531 14.132812 -28.988281 11.6875 -37.125 C 9.25 -45.257812 8.03125 -54.207031 8.03125 -63.96875 L 8.03125 -83.90625 C 8.03125 -93.738281 9.316406 -102.722656 11.890625 -110.859375 C 14.472656 -118.992188 18.132812 -125.976562 22.875 -131.8125 C 27.625 -137.644531 33.375 -142.171875 40.125 -145.390625 C 46.875 -148.609375 54.453125 -150.21875 62.859375 -150.21875 C 70.992188 -150.21875 78.226562 -149.066406 84.5625 -146.765625 C 90.90625 -144.460938 96.3125 -141.171875 100.78125 -136.890625 C 105.257812 -132.617188 108.785156 -127.398438 111.359375 -121.234375 C 113.941406 -115.066406 115.570312 -108.117188 116.25 -100.390625 L 87.78125 -100.390625 C 87.5 -104.796875 86.832031 -108.660156 85.78125 -111.984375 C 84.738281 -115.304688 83.21875 -118.066406 81.21875 -120.265625 C 79.21875 -122.472656 76.707031 -124.132812 73.6875 -125.25 C 70.664062 -126.375 67.054688 -126.9375 62.859375 -126.9375 C 58.453125 -126.9375 54.617188 -125.984375 51.359375 -124.078125 C 48.109375 -122.179688 45.414062 -119.398438 43.28125 -115.734375 C 41.144531 -112.078125 39.566406 -107.585938 38.546875 -102.265625 C 37.523438 -96.941406 37.015625 -90.890625 37.015625 -84.109375 L 37.015625 -63.96875 C 37.015625 -49.394531 39.066406 -38.613281 43.171875 -31.625 C 47.273438 -24.644531 53.769531 -21.15625 62.65625 -21.15625 C 70.113281 -21.15625 76.007812 -23.140625 80.34375 -27.109375 C 84.6875 -31.078125 87.09375 -37.5 87.5625 -46.375 Z M 116.15625 -46.375 "/></g></g></g></g></g></svg>